<?xml version="1.0" encoding="UTF-8"?>
<svg width="32px" height="32px" viewBox="0 0 32 32" version="1.1" xmlns="http://www.w3.org/2000/svg" xmlns:xlink="http://www.w3.org/1999/xlink">
    <title>03表单/清除</title>
    <g id="03表单/清除" stroke="none" stroke-width="1" fill="none" fill-rule="evenodd">
        <g id="编组">
            <circle id="Oval" fill="#CCCCCC" cx="16" cy="16" r="16"></circle>
            <path d="M11.0348565,8.52069906 L16.0004787,13.4863212 L20.9651435,8.52069906 C21.6594089,7.82643365 22.7850355,7.82643365 23.4793009,8.52069906 C24.1735664,9.21496446 24.1735664,10.3405911 23.4793009,11.0348565 L18.5136788,16.0004787 L23.4793009,20.9651435 C24.1735664,21.6594089 24.1735664,22.7850355 23.4793009,23.4793009 C22.7850355,24.1735664 21.6594089,24.1735664 20.9651435,23.4793009 L16.0001257,18.5142831 L11.0348565,23.4793009 C10.3405911,24.1735664 9.21496446,24.1735664 8.52069906,23.4793009 C7.82643365,22.7850355 7.82643365,21.6594089 8.52069906,20.9651435 L13.4857169,16.0001257 L8.52069906,11.0348565 C7.82643365,10.3405911 7.82643365,9.21496446 8.52069906,8.52069906 C9.21496446,7.82643365 10.3405911,7.82643365 11.0348565,8.52069906 Z" id="Combined-Shape" fill="#FFFFFF" fill-rule="nonzero"></path>
        </g>
    </g>
</svg>